<?xml version="1.0" standalone="no"?>
<!DOCTYPE svg PUBLIC "-//W3C//DTD SVG 20010904//EN"
 "http://www.w3.org/TR/2001/REC-SVG-20010904/DTD/svg10.dtd">
<svg version="1.0" xmlns="http://www.w3.org/2000/svg"
 width="512.000000pt" height="512.000000pt" viewBox="0 0 512.000000 512.000000"
 preserveAspectRatio="xMidYMid meet">
<metadata>
Created by potrace 1.14, written by Peter Selinger 2001-2017
</metadata>
<g transform="translate(0.000000,512.000000) scale(0.100000,-0.100000)"
fill="#000000" stroke="none">
<path d="M1529 4776 c-2 -2 -31 -7 -64 -11 -33 -3 -69 -8 -80 -11 -11 -2 -31
-6 -45 -8 -202 -33 -446 -125 -605 -230 -272 -178 -474 -481 -532 -796 -24
-131 -31 -223 -28 -360 3 -158 5 -179 31 -335 27 -165 120 -388 242 -582 29
-46 52 -85 52 -88 0 -3 -95 -5 -210 -5 -232 0 -257 -5 -279 -58 -17 -40 -2
-90 32 -116 27 -20 41 -21 317 -21 159 0 290 -3 292 -5 57 -78 190 -236 288
-345 126 -138 495 -509 673 -677 110 -102 215 -203 412 -396 94 -92 195 -188
225 -213 68 -56 181 -127 230 -144 3 -1 12 -4 20 -8 95 -38 219 -32 335 18 54
23 160 93 214 141 24 21 53 47 65 57 12 10 118 114 237 230 118 117 253 248
300 291 272 256 643 634 805 821 68 78 72 84 145 175 l52 65 171 1 c94 1 181
2 194 3 33 1 82 53 82 86 0 38 -24 79 -55 93 -15 7 -73 12 -140 12 l-114 0 63
103 c142 234 217 429 242 627 3 25 8 56 10 70 9 54 11 359 3 420 -17 127 -19
140 -40 217 -98 363 -324 636 -664 803 -90 44 -250 103 -308 114 -12 2 -42 9
-66 16 -110 29 -287 48 -436 45 -159 -4 -172 -5 -305 -36 -217 -50 -424 -149
-635 -303 -9 -7 -25 0 -51 21 -121 95 -302 190 -463 242 -161 53 -279 73 -452
77 -86 2 -158 2 -160 0z"/>
</g>
</svg>
